<svg xmlns="http://www.w3.org/2000/svg" viewBox="0 0 1600 900">
  <defs><linearGradient id="bg" x1="0" y1="0" x2="1" y2="1"><stop stop-color="#18364f"/><stop offset=".55" stop-color="#264e5d"/><stop offset="1" stop-color="#30395e"/></linearGradient></defs>
  <rect width="1600" height="900" fill="url(#bg)"/><rect y="710" width="1600" height="190" fill="#6f482d"/>
  <g transform="translate(300 160)"><circle cx="0" cy="0" r="145" fill="#e4544c"/><path d="M-55 5h95" stroke="white" stroke-width="26" stroke-linecap="round"/><path d="M20-45l70 50-70 50z" fill="white"/><circle cx="0" cy="0" r="168" fill="none" stroke="#ff9c8d" stroke-width="9"/></g>
  <g transform="translate(800 160)"><circle cx="0" cy="0" r="145" fill="#48b978"/><rect x="-70" y="-105" width="140" height="210" rx="28" fill="#f9feff"/><rect x="-45" y="-70" width="90" height="100" rx="18" fill="#72d0a0"/><path d="M-24-15l20 22 38-46" fill="none" stroke="white" stroke-width="16" stroke-linecap="round"/><circle cx="0" cy="72" r="12" fill="#48b978"/><circle cx="0" cy="0" r="168" fill="none" stroke="#96e9bc" stroke-width="9"/></g>
  <g transform="translate(1300 160)"><circle cx="0" cy="0" r="145" fill="#8b64cf"/><path d="M-90-18h180v80H-90z" fill="#f8f5ff"/><text x="-64" y="38" font-family="Arial" font-size="58" fill="#5a3f93" font-weight="900">••••</text><path d="M70 10l80 25-80 25z" fill="#ffd35a"/><circle cx="0" cy="0" r="168" fill="none" stroke="#cdb7f6" stroke-width="9"/></g>
  <path d="M260 500q40 80 120 120M760 500v120M1260 500q-40 80-120 120" fill="none" stroke="#d8f5ff" stroke-width="13" stroke-linecap="round" opacity=".55"/>
  <g opacity=".25"><circle cx="170" cy="610" r="55" fill="#fff"/><circle cx="1430" cy="610" r="50" fill="#fff"/></g>
</svg>